<?xml version="1.0" standalone="no"?>
<!DOCTYPE svg PUBLIC "-//W3C//DTD SVG 20010904//EN"
 "http://www.w3.org/TR/2001/REC-SVG-20010904/DTD/svg10.dtd">
<svg version="1.0" xmlns="http://www.w3.org/2000/svg"
 width="980.000000pt" height="980.000000pt" viewBox="0 0 980.000000 980.000000"
 preserveAspectRatio="xMidYMid meet">

<g transform="translate(0.000000,980.000000) scale(0.100000,-0.100000)"
fill="#000000" stroke="none">
<path d="M2543 7538 c-2 -5 1077 -7 2399 -6 1322 2 2014 4 1538 5 -2309 7
-3932 7 -3937 1z"/>
<path d="M2434 7524 c-18 -14 -18 -14 6 -3 31 14 36 19 24 19 -6 0 -19 -7 -30
-16z"/>
<path d="M2478 7516 c-21 -5 -38 -13 -38 -17 0 -4 12 -4 28 2 17 6 929 8 2449
7 1332 -2 2419 0 2415 4 -12 12 -4810 15 -4854 4z"/>
<path d="M7359 7503 c-13 -16 -12 -17 4 -4 15 12 20 11 37 -4 25 -23 19 -30
-12 -14 l-23 12 19 -22 c11 -12 26 -19 34 -16 9 3 12 0 9 -8 -3 -8 -1 -20 5
-28 8 -11 9 -10 4 4 -3 9 -1 17 4 17 6 0 10 -7 10 -15 0 -8 5 -15 10 -15 6 0
10 3 10 8 0 10 -80 102 -90 102 -4 0 -14 -8 -21 -17z"/>
<path d="M2361 7465 c-35 -41 -36 -43 -16 -69 14 -19 15 -18 11 14 -3 28 2 40
25 62 16 16 25 28 20 28 -5 0 -23 -16 -40 -35z"/>
<path d="M2408 7479 c-10 -5 -23 -20 -30 -32 -9 -17 -5 -16 20 8 40 38 42 43
10 24z"/>
<path d="M2320 7382 c0 -12 5 -22 10 -22 7 0 9 -586 8 -1742 l-3 -1743 -5
1735 c-3 954 -7 1551 -8 1325 -2 -225 -4 -473 -4 -550 2 -2191 3 -2554 12
-2587 13 -44 63 -98 108 -117 27 -11 43 -12 85 -2 39 9 282 11 970 9 504 -2
917 0 917 5 0 4 -438 7 -973 7 l-974 0 -40 29 c-37 27 -55 56 -66 106 -4 17
-5 17 -6 -3 0 -13 4 -32 10 -44 6 -11 8 -22 5 -26 -9 -8 -16 2 -21 29 -3 13
-7 37 -11 53 -4 19 -3 26 5 22 8 -5 11 467 11 1746 -1 1526 -3 1756 -15 1772
-15 19 -15 19 -15 -2z m68 -3647 c-3 -3 -9 2 -12 12 -6 14 -5 15 5 6 7 -7 10
-15 7 -18z m79 -41 c27 -9 32 -13 16 -14 -29 0 -94 31 -87 42 3 5 12 4 20 -3
8 -6 31 -17 51 -25z"/>
<path d="M7441 7395 c1 -19 18 -51 18 -35 0 8 -4 22 -9 30 -5 8 -9 11 -9 5z"/>
<path d="M7460 7391 c0 -6 5 -13 10 -16 6 -3 10 1 10 9 0 9 -4 16 -10 16 -5 0
-10 -4 -10 -9z"/>
<path d="M7461 7328 c-8 -17 -11 -118 -9 -378 l3 -355 5 365 5 365 5 -370 5
-370 3 383 c1 210 1 382 -1 382 -2 0 -9 -10 -16 -22z"/>
<path d="M7451 6574 c0 -11 3 -14 6 -6 3 7 2 16 -1 19 -3 4 -6 -2 -5 -13z"/>
<path d="M7471 6554 c0 -11 3 -14 6 -6 3 7 2 16 -1 19 -3 4 -6 -2 -5 -13z"/>
<path d="M7454 6405 c0 -82 2 -115 3 -72 2 43 2 110 0 150 -1 40 -3 5 -3 -78z"/>
<path d="M2005 6520 c-16 -3 29 -5 100 -2 72 3 132 6 134 8 8 7 -203 2 -234
-6z"/>
<path d="M2250 6519 c0 -5 5 -7 10 -4 6 3 10 8 10 11 0 2 -4 4 -10 4 -5 0 -10
-5 -10 -11z"/>
<path d="M2280 6516 c0 -8 -8 -17 -17 -19 -14 -4 -12 -5 5 -6 12 0 22 1 22 3
0 2 3 11 6 20 3 9 1 16 -5 16 -6 0 -11 -6 -11 -14z"/>
<path d="M7480 6510 c0 -17 14 -19 168 -22 135 -2 174 -6 201 -21 41 -21 55
-15 14 7 -15 8 -23 15 -18 16 17 0 115 -60 115 -70 0 -6 -12 -3 -27 6 -16 9
-21 10 -13 3 8 -8 29 -31 47 -51 18 -21 35 -33 38 -28 4 6 11 7 18 3 21 -13
-33 55 -68 86 -59 52 -93 64 -170 63 -38 -1 -88 2 -110 6 l-40 7 60 6 c42 4
18 6 -77 7 -127 0 -138 -2 -138 -18z m524 -137 c3 -7 4 -13 2 -13 -6 0 -46 38
-46 44 0 10 39 -17 44 -31z"/>
<path d="M7788 6513 c6 -2 18 -2 25 0 6 3 1 5 -13 5 -14 0 -19 -2 -12 -5z"/>
<path d="M1907 6484 c-42 -22 -47 -27 -35 -41 11 -14 10 -16 -12 -10 -19 4
-29 0 -43 -19 -10 -13 -13 -24 -7 -24 5 0 10 -5 10 -10 0 -6 -8 -10 -17 -8
-30 5 -64 -78 -70 -172 -4 -56 -3 -80 6 -80 8 0 12 -441 14 -1722 l2 -1723 3
1765 c1 971 5 1779 7 1795 5 29 5 29 -10 -5 -10 -24 -14 -27 -10 -10 2 14 5
36 5 49 0 20 2 22 16 11 8 -8 14 -9 13 -4 -8 26 102 172 134 178 7 2 26 9 42
17 18 8 83 16 160 19 l130 6 -132 2 c-72 1 -137 4 -145 7 -7 2 -35 -7 -61 -21z
m18 -14 c-27 -11 -52 -20 -55 -19 -11 2 76 38 90 38 8 0 -7 -9 -35 -19z m-85
-65 c-7 -9 -15 -13 -18 -10 -3 2 1 11 8 20 7 9 15 13 18 10 3 -2 -1 -11 -8
-20z m-43 -57 c-3 -8 -6 -5 -6 6 -1 11 2 17 5 13 3 -3 4 -12 1 -19z m-17 -39
c-7 -11 -14 -19 -16 -16 -7 7 7 37 17 37 6 0 5 -9 -1 -21z"/>
<path d="M3950 6500 c-81 -11 -176 -38 -247 -70 -82 -37 -86 -54 -39 -148 49
-97 58 -100 157 -62 145 56 285 63 357 20 37 -23 52 -54 52 -111 0 -66 -32
-113 -128 -187 -166 -128 -212 -191 -220 -305 -7 -97 4 -107 120 -107 49 0 98
5 108 10 12 7 21 26 26 58 10 69 27 95 97 152 34 28 92 75 128 104 113 92 152
171 153 306 0 92 -31 167 -95 230 -101 98 -268 137 -469 110z"/>
<path d="M7473 6400 c0 -41 2 -58 4 -37 2 20 2 54 0 75 -2 20 -4 3 -4 -38z"/>
<path d="M8007 6334 c-3 -3 -1 -19 5 -35 9 -26 11 -27 25 -13 12 12 13 20 4
37 l-11 22 5 -22 c3 -12 1 -24 -5 -28 -9 -5 -15 15 -11 38 1 8 -3 9 -12 1z"/>
<path d="M2045 6281 c-27 -12 -35 -20 -25 -24 11 -4 10 -6 -4 -6 -15 -1 -17
-4 -8 -13 7 -7 15 -8 24 -1 26 20 95 30 181 25 74 -4 87 -2 87 11 0 9 -5 19
-12 23 -7 5 -9 2 -5 -8 5 -13 -4 -16 -51 -17 -32 0 -71 4 -87 9 -24 7 -16 9
43 8 39 -1 75 2 79 5 3 4 -36 7 -88 6 -67 0 -106 -6 -134 -18z m45 -11 c-34
-11 -60 -11 -35 0 11 5 29 8 40 8 16 0 15 -2 -5 -8z"/>
<path d="M7477 6280 c-5 -19 0 -20 116 -20 142 0 190 -17 229 -78 l23 -37 2
-1595 c2 -877 4 -1602 6 -1610 2 -8 9 3 15 25 18 62 17 3151 -1 3194 -10 24
-16 28 -25 19 -9 -9 -12 -9 -12 -1 0 7 5 15 11 19 16 9 -48 72 -85 83 -68 20
-94 21 -99 3 -4 -16 -5 -16 -6 1 -1 15 -12 17 -85 17 -75 0 -84 -2 -89 -20z
m312 -29 c12 -7 20 -15 17 -18 -3 -3 -16 2 -30 10 -14 9 -43 19 -65 23 -23 4
-41 10 -41 14 0 10 86 -12 119 -29z m46 -40 c3 -5 1 -12 -5 -16 -5 -3 -10 1
-10 9 0 18 6 21 15 7z m34 -1658 c1 -859 -2 -1564 -6 -1566 -5 -3 -8 710 -8
1585 0 874 3 1579 7 1566 3 -13 6 -726 7 -1585z"/>
<path d="M8036 6265 c-3 -9 -6 -24 -5 -33 1 -11 4 -8 10 8 7 20 8 17 4 -15 -3
-22 -5 -836 -5 -1808 l0 -1769 -21 -5 c-16 -4 -17 -8 -7 -14 7 -5 -817 -8
-1832 -6 -1015 1 -1595 4 -1290 7 l555 5 -525 4 c-562 4 -592 4 -601 -10 -3
-5 -533 -10 -1245 -12 -681 -1 310 -3 2203 -5 1893 -1 3450 -5 3460 -8 16 -5
16 -4 -2 12 -16 14 -17 16 -3 10 52 -18 54 -18 34 -2 -17 14 -64 16 -347 16
-180 0 -333 2 -341 5 -11 4 -13 313 -11 1801 2 1507 1 1799 -11 1815 -12 18
-14 18 -20 4z m21 -2707 c-1 -486 -2 -89 -2 882 0 971 1 1368 2 883 2 -486 2
-1280 0 -1765z m18 -928 c-3 -5 -13 -10 -21 -10 -8 0 -14 5 -14 10 0 6 9 10
21 10 11 0 17 -4 14 -10z"/>
<path d="M1987 6221 c6 -22 -12 -29 -20 -8 -3 7 -6 4 -6 -6 -1 -10 -6 -15 -11
-12 -6 3 -5 -6 2 -20 8 -17 14 -22 16 -14 3 8 13 23 24 35 16 18 17 23 4 33
-12 10 -14 9 -9 -8z"/>
<path d="M7450 5043 c0 -777 4 -1193 10 -1183 8 12 10 11 10 -7 0 -13 -6 -23
-14 -23 -7 0 -16 -9 -19 -19 -3 -14 -1 -18 9 -14 10 3 12 0 8 -10 -3 -9 -12
-13 -20 -10 -14 5 -18 -7 -14 -36 1 -8 -4 -12 -13 -8 -8 3 -27 -3 -43 -14 -16
-10 -25 -19 -21 -19 4 0 19 7 32 16 14 9 25 12 25 6 0 -12 -62 -42 -87 -41
-16 0 -16 1 2 9 11 5 -409 9 -971 9 l-991 1 -22 -23 c-21 -23 -21 -25 -4 -38
17 -13 17 -13 3 5 -14 18 -13 19 3 13 12 -4 16 -3 11 4 -4 6 -1 15 7 19 20 13
1926 13 1934 0 4 -7 -302 -11 -957 -13 l-963 -2 990 0 990 0 35 25 c55 39 61
45 47 60 -10 10 -8 12 6 7 14 -5 21 1 32 27 13 29 15 219 15 1245 0 1073 -2
1211 -15 1211 -13 0 -15 -137 -15 -1197z m17 -586 c-1 -320 -2 -58 -2 583 0
641 1 903 2 582 2 -320 2 -844 0 -1165z"/>
<path d="M1928 6156 c-3 -14 -1 -24 5 -23 6 1 14 -11 18 -28 6 -29 7 -29 8 -4
0 15 -5 39 -13 53 l-14 27 -4 -25z"/>
<path d="M1925 4571 c0 -855 3 -1536 7 -1515 9 50 8 2952 0 3019 -4 28 -7
-649 -7 -1504z"/>
<path d="M3963 5351 c-84 -21 -118 -76 -111 -178 4 -58 8 -67 41 -101 35 -35
41 -37 109 -40 86 -4 131 15 163 69 26 45 26 134 -1 180 -35 59 -122 90 -201
70z"/>
<path d="M4440 3680 c23 -18 23 -19 3 -14 -16 5 -11 -5 23 -42 24 -26 47 -44
51 -41 3 4 1 7 -7 7 -10 0 -10 3 0 15 10 12 10 15 0 15 -8 0 -10 3 -6 7 9 9
-55 73 -73 73 -11 0 -9 -6 9 -20z m48 -45 c17 -37 15 -41 -8 -12 -22 27 -25
37 -12 37 5 0 14 -11 20 -25z"/>
<path d="M2532 3668 c-9 -4 408 -6 928 -5 520 1 797 3 615 4 -838 7 -1527 7
-1543 1z"/>
<path d="M5300 3631 c0 -6 4 -13 10 -16 6 -3 7 1 4 9 -7 18 -14 21 -14 7z"/>
<path d="M5213 3547 c-45 -48 -49 -55 -33 -65 14 -9 21 -5 39 19 24 32 22 38
-4 13 -9 -9 -19 -13 -23 -10 -3 4 5 17 19 29 28 24 65 67 58 67 -3 0 -28 -24
-56 -53z"/>
<path d="M5282 3588 c-7 -7 -12 -16 -12 -21 0 -5 7 -1 16 8 9 9 14 18 12 20
-2 3 -10 -1 -16 -7z"/>
<path d="M4539 3589 c0 -2 -2 -12 -4 -21 -5 -25 19 -42 34 -25 8 11 6 18 -9
32 -11 10 -20 16 -21 14z m21 -24 c7 -9 8 -15 2 -15 -5 0 -12 7 -16 15 -3 8
-4 15 -2 15 2 0 9 -7 16 -15z"/>
<path d="M4569 3523 c-13 -17 -13 -17 6 -3 11 8 22 16 24 17 2 2 0 3 -6 3 -6
0 -17 -8 -24 -17z"/>
<path d="M4606 3504 c-7 -18 42 -87 58 -81 6 2 25 -5 41 -16 28 -19 28 -18 -6
17 -19 21 -42 38 -50 39 -27 5 -40 19 -34 38 8 23 0 26 -9 3z m64 -59 c0 -12
-19 -12 -23 0 -4 9 -1 12 9 8 7 -3 14 -7 14 -8z"/>
<path d="M5120 3443 c-19 -21 -44 -50 -55 -63 -19 -24 -19 -24 10 1 17 15 35
25 41 22 6 -2 17 3 24 12 8 10 9 15 1 15 -6 0 -11 5 -11 10 0 6 6 10 13 9 24
-3 37 1 37 12 0 5 -4 8 -9 5 -5 -4 -11 -1 -13 5 -2 6 -19 -7 -38 -28z m10 -23
c0 -5 -5 -10 -11 -10 -5 0 -7 5 -4 10 3 6 8 10 11 10 2 0 4 -4 4 -10z"/>
<path d="M4685 3390 c42 -52 46 -55 56 -39 7 10 8 8 7 -10 -4 -36 65 -82 98
-67 20 10 21 12 6 18 -26 10 -39 9 -22 -2 13 -9 13 -10 0 -10 -23 0 -60 29
-54 43 2 7 -8 24 -22 37 -15 14 -24 19 -20 13 12 -22 -6 -14 -38 15 -28 24
-29 24 -11 2z m85 -60 c0 -5 -5 -10 -11 -10 -5 0 -7 5 -4 10 3 6 8 10 11 10 2
0 4 -4 4 -10z"/>
<path d="M5084 3369 c-12 -11 -27 -21 -35 -22 -8 -2 -31 -15 -50 -30 -20 -15
-44 -27 -54 -27 -10 0 -16 -3 -12 -6 11 -11 53 5 82 32 27 25 28 25 22 4 -6
-22 -6 -22 16 1 11 13 32 34 45 47 12 12 19 22 15 22 -5 0 -18 -9 -29 -21z"/>
<path d="M4990 3280 c-8 -5 -10 -10 -5 -10 6 0 17 5 25 10 8 5 11 10 5 10 -5
0 -17 -5 -25 -10z"/>
<path d="M4861 3266 c-23 -13 -22 -13 23 -14 25 -1 56 3 69 9 17 7 10 8 -28 4
-35 -3 -44 -2 -30 4 13 7 15 10 5 10 -8 0 -26 -6 -39 -13z"/>
<path d="M1948 3020 c-3 -19 -8 -44 -11 -55 -2 -11 -2 -14 0 -7 7 21 25 13 18
-8 -4 -14 -2 -20 8 -20 18 0 42 -28 33 -38 -4 -4 -14 2 -22 12 -8 11 -14 15
-14 9 0 -6 18 -25 39 -42 41 -33 62 -41 41 -16 -8 9 -9 15 -2 15 6 0 14 -4 17
-10 3 -5 16 -10 28 -10 16 0 11 5 -18 19 -67 30 -100 77 -108 156 l-3 30 -6
-35z m77 -140 c3 -5 2 -10 -4 -10 -5 0 -13 5 -16 10 -3 6 -2 10 4 10 5 0 13
-4 16 -10z"/>
<path d="M7811 2927 c-13 -24 -63 -57 -89 -58 -14 0 -13 -2 3 -9 32 -14 51
-11 76 10 21 17 21 19 4 13 l-20 -6 20 24 c11 13 24 27 29 30 4 4 4 9 -1 12
-6 4 -15 -4 -22 -16z m-26 -57 c-3 -5 -13 -10 -21 -10 -8 0 -12 5 -9 10 3 6
13 10 21 10 8 0 12 -4 9 -10z"/>
<path d="M4913 2853 c1852 -2 2786 -6 2782 -13 -3 -6 3 -10 14 -10 28 0 27 16
-1 24 -13 3 -1274 5 -2803 3 l-2780 -2 2788 -2z"/>
<path d="M2103 2838 c-2 -5 1253 -7 2789 -6 1536 2 2341 4 1788 5 -2687 7
-4572 7 -4577 1z"/>
<path d="M1730 2673 c0 -15 18 -35 27 -32 5 2 1 12 -9 22 -10 9 -18 14 -18 10z"/>
<path d="M1417 2643 c-197 -2 -306 -7 -302 -13 3 -5 0 -7 -8 -4 -8 3 -18 1
-22 -5 -4 -8 105 -11 368 -11 324 0 376 2 381 15 7 18 -10 20 -18 3 -5 -10 -7
-10 -12 0 -3 6 -11 9 -17 5 -7 -4 -34 -8 -62 -9 -27 -1 -41 0 -30 3 11 3 24 9
30 14 5 5 7 8 5 7 -3 -2 -144 -4 -313 -5z"/>
<path d="M1038 2628 c-16 -5 -28 -14 -28 -19 0 -5 -9 -18 -20 -29 -11 -11 -20
-28 -19 -37 0 -14 2 -13 9 5 13 31 23 28 16 -5 -5 -26 -4 -25 9 4 8 18 27 39
42 47 16 9 21 15 13 16 -9 0 -21 -5 -28 -12 -9 -9 -12 -9 -12 0 0 7 15 18 33
26 37 16 26 19 -15 4z"/>
<path d="M8785 2581 c-7 -12 14 -56 23 -47 3 4 0 12 -6 18 -18 18 -14 32 5 17
14 -12 16 -12 12 0 -7 19 -25 25 -34 12z"/>
<path d="M8813 2530 c-15 -24 -17 -86 -3 -95 15 -9 22 16 18 69 -3 42 -4 45
-15 26z m4 -72 c-2 -13 -4 -3 -4 22 0 25 2 35 4 23 2 -13 2 -33 0 -45z"/>
<path d="M973 2460 l-1 -65 50 -47 c28 -27 57 -48 66 -48 13 0 12 3 -4 15 -10
8 -14 15 -7 15 6 0 19 -7 27 -16 25 -24 164 -34 466 -32 l275 2 -330 6 c-281
6 -337 9 -375 24 -25 10 -58 19 -73 20 -15 2 -33 9 -40 16 -10 10 -7 12 13 7
23 -6 24 -5 6 8 -24 18 -13 34 20 27 20 -4 25 -2 19 7 -5 9 -19 11 -41 6 -21
-3 -34 -2 -34 5 0 14 7746 14 7755 0 3 -6 14 -10 23 -10 13 0 14 2 3 9 -11 7
-11 9 0 14 8 3 -1740 6 -3883 6 -2143 1 -3903 4 -3912 7 -9 3 -16 22 -19 47
-2 28 -4 20 -4 -23z m38 -70 c5 0 9 -7 9 -16 0 -12 -6 -10 -21 10 -12 16 -17
31 -12 38 6 9 9 6 11 -9 2 -13 8 -23 13 -23z"/>
<path d="M8814 2405 c-4 -8 -18 -16 -33 -16 -17 -1 -20 -3 -8 -6 26 -7 21 -18
-21 -47 -41 -28 -80 -37 -46 -11 16 14 14 14 -14 0 -19 -9 -52 -20 -75 -25
l-42 -8 39 -1 c22 -1 36 -4 32 -8 -4 -5 -1678 -10 -3719 -13 l-3712 -5 3676
-3 c2514 -1 3693 1 3732 8 31 6 76 22 101 36 44 25 106 86 106 104 0 15 -10
12 -16 -5z m-124 -105 c0 -5 -7 -10 -16 -10 -8 0 -12 5 -9 10 3 6 10 10 16 10
5 0 9 -4 9 -10z"/>
<path d="M8735 2400 c-3 -5 -2 -10 4 -10 5 0 13 5 16 10 3 6 2 10 -4 10 -5 0
-13 -4 -16 -10z"/>
<path d="M3057 2393 c1025 -2 2701 -2 3725 0 1025 1 187 2 -1862 2 -2049 0
-2887 -1 -1863 -2z"/>
<path d="M8740 2355 c-7 -8 -8 -15 -2 -15 5 0 15 7 22 15 7 8 8 15 2 15 -5 0
-15 -7 -22 -15z"/>
<path d="M8240 2290 l-245 -6 235 -1 c129 -1 258 2 285 7 46 7 46 7 10 6 -22
0 -150 -3 -285 -6z"/>
<path d="M3537 2283 c761 -2 2005 -2 2765 0 761 1 139 2 -1382 2 -1521 0
-2143 -1 -1383 -2z"/>
<path d="M1158 2273 c7 -3 16 -2 19 1 4 3 -2 6 -13 5 -11 0 -14 -3 -6 -6z"/>
</g>
</svg>
